# AST/ASF file generated using VICON BodyLanguage
# -----------------------------------------------
:version 1.10
:name VICON
:units
  mass 1.0
  length 0.45
  angle deg
:documentation
   .ast/.asf automatically generated from VICON data using
   VICON BodyBuilder and BodyLanguage model FoxedUp or BRILLIANT.MOD
:root
   order TX TY TZ RX RY RZ
   axis XYZ
   position 0 0 0  
   orientation 0 0 0 
:bonedata
  begin
     id 1 
     name lhipjoint
     direction 0.558404 -0.748506 0.357664 
     length 2.4234 
     axis 0 0 0  XYZ
  end
  begin
     id 2 
     name lfemur
     direction 0.34202 -0.939693 0  
     length 7.14567  
     axis 0 0 20  XYZ
    dof rx ry rz
    limits (-160.0 20.0)
           (-70.0 70.0)
           (-60.0 70.0)
  end
  begin
     id 3 
     name ltibia
     direction 0.34202 -0.939693 0   
     length 8.13956   
     axis 0 0 20   XYZ
    dof rx
    limits (-10.0 170.0)
  end
  begin
     id 4 
     name lfoot
     direction 0.0791314 -0.217412 0.972867   
     length 2.00134   
     axis -90 7.62852e-016 20   XYZ
    dof rx rz
    limits (-45.0 90.0)
           (-70.0 20.0)
  end
  begin
     id 5 
     name ltoes
     direction 1.53547e-011 -4.21922e-011 1   
     length 1.00735   
     axis -90 7.62852e-016 20   XYZ
    dof rx
    limits (-90.0 20.0)
  end
  begin
     id 6 
     name rhipjoint
     direction -0.496392 -0.78327 0.374276   
     length 2.31584  
     axis 0 0 0  XYZ 
  end
  begin
     id 7 
     name rfemur
     direction -0.34202 -0.939693 0   
     length 7.47417   
     axis 0 0 -20   XYZ
    dof rx ry rz
    limits (-160.0 20.0)
           (-70.0 70.0)
           (-70.0 60.0)
  end
  begin
     id 8 
     name rtibia
     direction -0.34202 -0.939693 0   
     length 7.69071   
     axis 0 0 -20   XYZ
    dof rx
    limits (-10.0 170.0)
 end
 begin
     id 9 
     name rfoot
     direction -0.103069 -0.28318 0.953512   
     length 2.16135  
     axis -90 -7.62852e-016 -20   XYZ
    dof rx rz
    limits (-45.0 90.0)
           (-20.0 70.0)
  end
  begin
     id 10 
     name rtoes
     direction -1.53581e-011 -4.21904e-011 1   
     length 1.07867   
     axis -90 -7.62852e-016 -20   XYZ
    dof rx
    limits (-90.0 20.0)
  end
  begin
     id 11 
     name lowerback
     direction -0.0258961 0.994776 -0.0987407   
     length 2.19412   
     axis 0 0 0   XYZ
    dof rx ry rz
    limits (-20.0 45.0)
           (-30.0 30.0)
           (-30.0 30.0)
  end
  begin
     id 12 
     name upperback
     direction 0.0402454 0.999185 0.00320666   
     length 2.18445   
     axis 0 0 0   XYZ
    dof rx ry rz
    limits (-20.0 45.0)
           (-30.0 30.0)
           (-30.0 30.0)
  end
  begin
     id 13 
     name thorax
     direction 0.0519376 0.997415 0.0496558   
     length 2.21487   
     axis 0 0 0   XYZ
    dof rx ry rz
    limits (-20.0 45.0)
           (-30.0 30.0)
           (-30.0 30.0)
  end
  begin
     id 14 
     name lowerneck
     direction -0.0921276 0.983211 0.157506   
     length 1.61201   
     axis 0 0 0   XYZ
    dof rx ry rz
    limits (-20.0 45.0)
           (-30.0 30.0)
           (-30.0 30.0)
  end
  begin
     id 15 
     name upperneck
     direction 0.0820814 0.98162 -0.172292   
     length 1.65275   
     axis 0 0 0   XYZ
    dof rx ry rz
    limits (-20.0 45.0)
           (-30.0 30.0)
           (-30.0 30.0)
  end
  begin
     id 16
     name head
     direction 0.0336554 0.996413 -0.0776455  
     length 1.66415  
     axis 0 0 0   XYZ
    dof rx ry rz
    limits (-20.0 45.0)
           (-30.0 30.0)
           (-30.0 30.0)
  end
  begin
     id 17 
     name lclavicle
     direction 0.94696 0.284418 -0.149576  
     length 3.41447  
     axis 0 0 0   XYZ
    dof ry rz
    limits (-20.0 10.0)
           (0.0 20.0)
  end
  begin
     id 18 
     name lhumerus
     direction 1 -0.000130264 -9.81312e-005   
     length 5.19964   
     axis 180 -30 -90   XYZ
    dof rx ry rz
    limits (-60.0 90.0)
           (-90.0 90.0)
           (-90.0 90.0)
  end
  begin
     id 19
     name lradius
     direction 1 -4.48961e-011 1.43854e-026   
     length 3.32189   
     axis 180 -30 -90   XYZ
    dof rx
    limits (-10.0 170.0)
  end
  begin
     id 20
     name lwrist
     direction 1 -4.48958e-011 3.1502e-026   
     length 1.66095   
     axis -1.97692e-014 90 90   XYZ
    dof ry
    limits (-180.0 0.0)
 end
  begin
     id 21 
     name lhand
     direction 1 -4.48927e-011 6.3004e-026   
     length 0.645616   
     axis -4.02019e-014 90 90   XYZ
    dof rx rz
    limits (-90.0 90.0)
           (-45.0 45.0)
  end
  begin
     id 22 
     name lfingers
     direction 1 -4.4904e-011 1.26008e-025   
     length 0.520512   
     axis -8.04039e-014 90 90   XYZ
    dof rx
    limits (0.0 90.0)
  end
  begin
     id 23
     name lthumb
     direction 0.707107 -6.34947e-011 0.707107   
     length 0.747354   
     axis -90 45 2.85299e-015   XYZ
    dof rx rz
    limits (-45.0 45.0)
           (-45.0 45.0)
  end
  begin
     id 24 
     name rclavicle
     direction -0.909391 0.383475 -0.161107   
     length 3.25176  
     axis 0 0 0   XYZ 
    dof ry rz
    limits (-10.0 20.0)
           (-20.0 0.0)
  end
  begin
     id 25 
     name rhumerus
     direction -1 -4.48965e-011 -1.81384e-027  
     length 5.6595   
     axis 180 30 90   XYZ
    dof rx ry rz
    limits (-90.0 60.0)
           (-90.0 90.0)
           (-90.0 90.0)
  end
  begin
     id 26 
     name rradius
     direction -1 -4.48996e-011 -8.09397e-027   
     length 3.37604   
     axis 180 30 90   XYZ
    dof rx
    limits (-10.0 170.0)
  end
  begin
     id 27 
     name rwrist
     direction -1 -4.48927e-011 -1.56669e-026   
     length 1.68802   
     axis 1.21142e-014 -90 -90   XYZ
    dof ry
    limits (-180.0 0.0)
  end
  begin
     id 28
     name rhand
     direction -1 -4.48912e-011 -3.13339e-026   
     length 0.824702   
     axis 1.99937e-014 -90 -90   XYZ
    dof rx rz
    limits (-90.0 90.0)
           (-45.0 45.0)
  end
  begin
     id 29
     name rfingers
     direction -1 -4.49011e-011 -6.26677e-026   
     length 0.664896   
     axis 3.99874e-014 -90 -90   XYZ
    dof rx
    limits (0.0 90.0)
  end
  begin
     id 30
     name rthumb
     direction -0.707107 -6.34931e-011 0.707107   
     length 0.954662   
     axis -90 -45 -2.85299e-015   XYZ
    dof rx rz
    limits (-45.0 45.0)
           (-45.0 45.0)
  end
:hierarchy
  begin
    root lhipjoint rhipjoint lowerback
    lhipjoint lfemur
    lfemur ltibia
    ltibia lfoot
    lfoot ltoes
    rhipjoint rfemur
    rfemur rtibia
    rtibia rfoot
    rfoot rtoes
    lowerback upperback
    upperback thorax
    thorax lowerneck lclavicle rclavicle
    lowerneck upperneck
    upperneck head
    lclavicle lhumerus
    lhumerus lradius
    lradius lwrist
    lwrist lhand lthumb
    lhand lfingers
    rclavicle rhumerus
    rhumerus rradius
    rradius rwrist
    rwrist rhand rthumb
    rhand rfingers
  end

#!OML:ASF F:\VICON\USERDATA\INSTALL\rory3\rory3.ASF
:FULLY-SPECIFIED
:DEGREES
182
root 6.44436 15.4482 7.72846 -1.68709 15.4816 -1.06791
lowerback 11.3461 -10.1642 -1.89988
upperback -2.15328 -13.1904 9.70889
thorax -5.77406 -6.3469 13.5501
lowerneck -12.8344 -3.62512 -9.71798
upperneck 23.8918 -4.57892 6.54474
head 10.0941 -2.28538 3.37551
rclavicle 8.20981e-014 -5.725e-014
rhumerus -57.845 -24.3988 -47.8449
rradius 39.027
rwrist -17.6125
rhand -22.6545 18.225
rfingers 7.12502
rthumb 3.77673 -11.7213
lclavicle 8.20981e-014 -5.725e-014
lhumerus 39.0889 -71.4897 81.9672
lradius 56.4639
lwrist -9.21451
lhand -8.61709 16.1029
lfingers 7.12502
lthumb 17.315 45.3516
rfemur -47.5637 -3.3289 29.2438
rtibia 65.6787
rfoot -13.1115 -9.57488
rtoes 30.2153
lfemur -14.5845 21.9497 -35.5198
ltibia 66.6076
lfoot 4.06772 -28.673
ltoes -5.35068
183
root 6.53807 15.5112 7.80263 -1.2846 15.7743 -1.83289
lowerback 11.3354 -9.8248 -0.97322
upperback -2.63495 -12.5417 9.96778
thorax -6.5824 -5.97574 13.3769
lowerneck -12.0107 -3.85722 -10.1671
upperneck 23.6216 -4.90169 6.66009
head 9.88667 -2.47304 3.45446
rclavicle -4.73108e-014 3.18055e-014
rhumerus -57.9809 -24.3064 -47.5175
rradius 38.4254
rwrist -18.6773
rhand -22.7141 17.8484
rfingers 7.12502
rthumb 3.71921 -12.0989
lclavicle -4.73108e-014 3.18055e-014
lhumerus 53.82 -73.7272 64.9544
lradius 60.3267
lwrist -3.59303
lhand -9.9453 19.1528
lfingers 7.12502
lthumb 16.0363 48.5091
rfemur -47.5834 -3.40587 29.6641
rtibia 65.3077
rfoot -13.4562 -9.69945
rtoes 29.3291
lfemur -16.2903 22.0569 -34.1719
ltibia 67.7307
lfoot 1.85122 -27.1062
ltoes -9.49749
184
root 6.61588 15.5629 7.88513 -1.02073 16.3254 -2.28738
lowerback 10.9459 -9.48303 -0.542174
upperback -2.6908 -12.0174 10.0772
thorax -6.60555 -5.72365 13.1381
lowerneck -11.5011 -4.15454 -10.3737
upperneck 23.019 -5.33852 6.84334
head 9.62993 -2.67513 3.49521
rclavicle 4.77083e-014 1.27222e-014
rhumerus -57.4691 -24.8539 -47.4374
rradius 37.2509
rwrist -19.0476
rhand -22.9111 17.3334
rfingers 7.12502
rthumb 3.52899 -12.6171
lclavicle 4.77083e-014 1.27222e-014
lhumerus 52.9891 -74.0913 65.6505
lradius 60.9376
lwrist -2.83983
lhand -10.056 19.3513
lfingers 7.12502
lthumb 15.9297 48.7162
rfemur -47.3911 -3.82734 29.821
rtibia 64.9482
rfoot -13.5604 -9.63842
rtoes 29.503
lfemur -16.8482 21.6367 -32.7115
ltibia 69.053
lfoot 0.512363 -24.4831
ltoes -6.12352
185
root 6.69284 15.6292 7.98501 -1.12564 17.3186 -2.38341
lowerback 10.6668 -9.20577 -0.461733
upperback -2.52843 -11.6554 9.97472
thorax -6.38771 -5.56283 12.8526
lowerneck -11.1603 -4.58519 -10.4142
upperneck 22.3656 -5.94845 6.91443
head 9.40052 -2.95278 3.44568
rclavicle 6.16232e-015 -7.63333e-014
rhumerus -56.9106 -26.3054 -46.7114
rradius 35.2975
rwrist -18.1991
rhand -22.4371 17.2799
rfingers 7.12502
rthumb 3.98666 -12.6626
lclavicle 6.16232e-015 -7.63333e-014
lhumerus 52.9789 -74.492 65.3425
lradius 61.6091
lwrist -1.91279
lhand -9.94222 19.5843
lfingers 7.12502
lthumb 16.0393 48.9404
rfemur -46.5717 -4.88786 29.5728
rtibia 64.5366
rfoot -13.8395 -9.50246
rtoes 29.571
lfemur -16.8131 21.0754 -31.3867
ltibia 70.2202
lfoot -1.1847 -26.5628
ltoes -6.51951
186
root 6.7617 15.6871 8.05347 -1.03358 17.5893 -2.46438
lowerback 10.6206 -8.6747 -0.478518
upperback -2.47064 -10.9475 9.90652
thorax -6.45843 -5.20356 12.698
lowerneck -10.8251 -5.0203 -10.6878
upperneck 21.952 -6.5837 7.21826
head 9.27721 -3.24195 3.51896
rclavicle -3.75703e-014 1.27222e-014
rhumerus -56.6364 -27.8182 -45.5719
rradius 33.3479
rwrist -16.4752
rhand -21.2374 17.4791
rfingers 7.12502
rthumb 5.14509 -12.4385
lclavicle -3.75703e-014 1.27222e-014
lhumerus 51.5338 -74.8565 66.2831
lradius 62.3662
lwrist -1.11406
lhand -9.85329 19.8154
lfingers 7.12502
lthumb 16.1249 49.1646
rfemur -46.0597 -4.93254 29.3678
rtibia 64.1064
rfoot -14.1132 -9.76114
rtoes 29.065
lfemur -17.5747 21.0478 -30.3037
ltibia 71.4159
lfoot -3.59896 -24.5819
ltoes -8.64117
187
root 6.83153 15.7493 8.10451 -0.908904 17.415 -2.61005
lowerback 10.6348 -8.04616 -0.495014
upperback -2.33794 -10.1087 9.87133
thorax -6.50099 -4.78255 12.5663
lowerneck -10.7408 -5.38283 -11.1974
upperneck 21.7131 -7.15917 7.97633
head 9.28545 -3.47393 3.79652
rclavicle -5.02925e-014 -1.90833e-014
rhumerus -55.6268 -28.9209 -45.367
rradius 31.7084
rwrist -16.2165
rhand -21.0284 16.1626
rfingers 7.12502
rthumb 5.34689 -13.75
lclavicle -5.02925e-014 -1.90833e-014
lhumerus 50.9156 -75.1154 66.0362
lradius 63.3656
lwrist 0.105042
lhand -10.1134 20.5673
lfingers 7.12502
lthumb 15.8745 49.9366
rfemur -45.6017 -4.36046 29.217
rtibia 63.5871
rfoot -14.0989 -10.1523
rtoes 28.5755
lfemur -18.5629 21.3577 -29.2069
ltibia 72.5806
lfoot -5.6535 -22.1298
ltoes -10.4993
188
root 6.93084 15.8295 8.18533 -1.27543 17.6531 -2.26734
lowerback 10.7769 -7.59842 -0.735702
upperback -2.09205 -9.56068 9.60797
thorax -6.4342 -4.51092 12.335
lowerneck -10.4402 -5.7488 -11.6658
upperneck 21.4479 -7.71795 8.50919
head 9.2403 -3.72365 3.99336
rclavicle 2.22639e-014 5.08889e-014
rhumerus -54.396 -29.4419 -45.4093
rradius 29.7997
rwrist -15.9077
rhand -20.2391 15.5337
rfingers 7.12502
rthumb 6.10894 -14.3583
lclavicle 2.22639e-014 5.08889e-014
lhumerus 50.8344 -75.3744 65.1173
lradius 64.4013
lwrist 1.69155
lhand -10.3823 21.5922
lfingers 7.12502
lthumb 15.6155 50.9819
rfemur -44.2124 -4.85855 28.4327
rtibia 62.9969
rfoot -14.3269 -9.98913
rtoes 28.2368
lfemur -18.1659 21.4202 -28.3206
ltibia 73.4321
lfoot -7.91375 -19.8205
ltoes -11.8548
189
root 7.01186 15.8952 8.24224 -1.50431 17.6275 -2.1717
lowerback 11.1051 -7.06174 -0.957465
upperback -1.9735 -8.86439 9.52615
thorax -6.61398 -4.14592 12.3356
lowerneck -9.98635 -6.10581 -11.9353
upperneck 21.1067 -8.20853 8.57789
head 9.11049 -3.97576 4.00461
rclavicle 1.41733e-013 -8.90555e-014
rhumerus -53.0815 -27.8993 -47.0338
rradius 29.43
rwrist -17.2272
rhand -18.9948 14.5573
rfingers 7.12502
rthumb 7.31021 -15.2964
lclavicle 1.41733e-013 -8.90555e-014
lhumerus 46.665 -75.3117 68.4946
lradius 64.7949
lwrist 2.44189
lhand -10.5267 22.136
lfingers 7.12502
lthumb 15.4764 51.5365
rfemur -43.1205 -4.84207 28.0137
rtibia 62.3092
rfoot -14.6886 -10.0628
rtoes 28.702
lfemur -18.2525 21.5318 -27.2396
ltibia 74.3787
lfoot -9.49808 -17.5362
ltoes -11.2918
190
root 7.07392 15.9613 8.27302 -1.53994 17.4701 -2.67966
lowerback 11.3913 -6.52294 -0.786227
upperback -1.83766 -8.09265 9.69264
thorax -6.78912 -3.75472 12.3712
lowerneck -9.80833 -6.37502 -12.2617
upperneck 20.6307 -8.58376 8.91158
head 8.98847 -4.14587 4.12557
rclavicle 4.96962e-014 3.81667e-014
rhumerus -51.4625 -26.3831 -48.8493
rradius 29.2576
rwrist -18.1665
rhand -17.6374 13.5998
rfingers 7.12502
rthumb 8.62025 -16.2042
lclavicle 4.96962e-014 3.81667e-014
lhumerus 43.0678 -74.9643 71.143
lradius 65.127
lwrist 3.08276
lhand -10.815 22.6958
lfingers 7.12502
lthumb 15.1987 52.1176
rfemur -42.5562 -4.13972 28.2697
rtibia 61.4895
rfoot -14.553 -10.5439
rtoes 28.9661
lfemur -19.1584 21.5991 -25.6531
ltibia 75.3997
lfoot -10.4622 -15.5246
ltoes -10.9815
191
root 7.14963 16.0416 8.3275 -1.70661 17.8855 -2.82919
lowerback 11.7863 -6.22071 -0.516652
upperback -2.17192 -7.60631 9.57864
thorax -7.53146 -3.47014 12.1334
lowerneck -8.3235 -6.50221 -12.9183
upperneck 20.1402 -8.92542 9.52487
head 8.64772 -4.33925 4.43747
rclavicle 4.08502e-014 -7.95139e-014
rhumerus -50.8679 -25.136 -49.4185
rradius 28.5515
rwrist -17.6849
rhand -16.1796 13.2854
rfingers 7.12502
rthumb 10.0269 -16.4557
lclavicle 4.08502e-014 -7.95139e-014
lhumerus 35.0193 -74.9465 77.974
lradius 65.4483
lwrist 3.5575
lhand -11.3823 23.3995
lfingers 7.12502
lthumb 14.6522 52.8618
rfemur -41.6484 -4.31457 28.0488
rtibia 60.7246
rfoot -14.3296 -10.7697
rtoes 28.2573
lfemur -19.5268 21.175 -24.3762
ltibia 76.1026
lfoot -11.5448 -13.6827
ltoes -13.0906
192
root 7.21846 16.1271 8.37528 -1.53327 18.2001 -2.6786
lowerback 11.4497 -5.86675 -0.767338
upperback -1.72029 -7.21769 9.47931
thorax -6.90694 -3.31589 11.9968
lowerneck -9.12375 -6.89873 -12.929
upperneck 19.8646 -9.39384 9.7068
head 8.77147 -4.51677 4.41766
rclavicle 1.5704e-014 -6.99722e-014
rhumerus -48.7488 -25.3887 -50.443
rradius 27.7255
rwrist -16.3887
rhand -14.8369 12.8841
rfingers 7.12502
rthumb 11.3221 -16.7903
lclavicle 1.5704e-014 -6.99722e-014
lhumerus 34.7019 -74.5643 76.8567
lradius 66.0309
lwrist 4.84872
lhand -12.9825 25.4569
lfingers 7.12502
lthumb 13.11 55.0248
rfemur -40.9667 -4.33668 27.5901
rtibia 59.8058
rfoot -14.1916 -11.0546
rtoes 28.0502
lfemur -20.2519 20.6578 -23.5582
ltibia 76.7413
lfoot -12.4968 -11.5354
ltoes -15.2678
193
root 7.34095 16.18 8.38527 -1.3815 18.4762 -1.91397
lowerback 11.82 -5.58543 -0.566097
upperback -1.66033 -6.82486 8.97373
thorax -7.21719 -3.11941 11.2948
lowerneck -9.11023 -7.12501 -12.9723
upperneck 19.5376 -9.70803 9.85384
head 8.70806 -4.65271 4.43164
rclavicle -1.43125e-014 -1.59028e-014
rhumerus -47.2327 -25.371 -51.078
rradius 27.0419
rwrist -14.8535
rhand -13.4574 12.5156
rfingers 7.12502
rthumb 12.6523 -17.0812
lclavicle -1.43125e-014 -1.59028e-014
lhumerus 32.4575 -74.4911 77.515
lradius 66.7519
lwrist 7.00086
lhand -15.0673 28.3053
lfingers 7.12502
lthumb 11.0999 57.9918
rfemur -40.27 -5.67568 26.2927
rtibia 59.1206
rfoot -14.0603 -10.0495
rtoes 27.6963
lfemur -20.4348 19.6768 -23.9325
ltibia 77.0535
lfoot -13.3742 -8.69369
ltoes -14.2587
